<?xml version="1.0" encoding="UTF-8" standalone="no"?>
<!DOCTYPE svg PUBLIC "-//W3C//DTD SVG 1.1//EN" "http://www.w3.org/Graphics/SVG/1.1/DTD/svg11.dtd">
<svg width="100%" height="100%" viewBox="0 0 403 403" version="1.1" xmlns="http://www.w3.org/2000/svg" xmlns:xlink="http://www.w3.org/1999/xlink" xml:space="preserve" xmlns:serif="http://www.serif.com/" style="fill-rule:evenodd;clip-rule:evenodd;stroke-linejoin:round;stroke-miterlimit:2;">
    <g>
        <g>
            <path d="M26.432,58.143C31.405,80.96 44.696,127.803 74.877,161.324L96.676,161.324C79.397,125.92 72.367,86.085 69.52,58.143L26.432,58.143Z" style="fill:none;fill-rule:nonzero;"/>
            <path d="M163.532,332.443C158.069,333.938 133.708,341.97 126.221,367.809L276.162,367.809C268.692,342.029 244.42,333.974 238.842,332.443L163.532,332.443Z" style="fill:none;fill-rule:nonzero;"/>
            <path d="M172.093,308.443L230.291,308.443C240.216,308.443 248.291,300.368 248.291,290.443L248.291,289.114C248.291,279.188 240.216,271.114 230.291,271.114L172.093,271.114C162.168,271.114 154.093,279.188 154.093,289.114L154.093,290.443C154.093,300.368 162.168,308.443 172.093,308.443Z" style="fill:none;fill-rule:nonzero;"/>
            <path d="M305.706,161.324L327.507,161.324C357.78,127.714 371.028,80.935 375.97,58.143L332.865,58.143C330.016,86.085 322.987,125.92 305.706,161.324Z" style="fill:none;fill-rule:nonzero;"/>
            <path d="M91.911,34.575C93.403,66.412 102.043,154.195 151.614,195.179C153.73,196.929 155.182,199.353 155.728,202.043L164.866,247.114L237.516,247.114L246.655,202.043C247.201,199.353 248.653,196.929 250.769,195.179C300.34,154.196 308.981,66.415 310.471,34.575L91.911,34.575Z" style="fill:rgb(210,228,142);fill-rule:nonzero;"/>
            <path d="M399.405,38.229C397.126,35.632 393.839,34.143 390.383,34.143L334.568,34.143C334.823,27.502 334.788,23.296 334.775,22.406C334.682,15.845 329.338,10.575 322.776,10.575L79.607,10.575C73.045,10.575 67.7,15.846 67.608,22.406C67.595,23.297 67.56,27.503 67.815,34.143L12,34.143C8.545,34.143 5.258,35.632 2.979,38.229C0.7,40.827 -0.348,44.28 0.102,47.706C0.541,51.06 11.457,130.432 61.042,181.669C63.303,184.005 66.414,185.324 69.665,185.324L110.651,185.324C117.101,194.644 124.5,203.293 133.025,210.853L142.798,259.056C134.968,266.69 130.091,277.34 130.091,289.114L130.091,290.443C130.091,300.378 133.566,309.512 139.355,316.711C136.7,318.184 133.929,319.898 131.132,321.899C117.915,331.353 101.813,348.96 100.158,379.154C99.977,382.446 101.159,385.666 103.426,388.06C105.693,390.453 108.844,391.81 112.14,391.81L290.241,391.81C293.537,391.81 296.689,390.453 298.955,388.06C301.222,385.665 302.403,382.446 302.223,379.154C300.569,348.96 284.467,331.353 271.25,321.899C268.453,319.898 265.682,318.184 263.027,316.711C268.815,309.513 272.29,300.378 272.29,290.443L272.29,289.114C272.29,277.341 267.414,266.689 259.583,259.056L269.356,210.853C277.882,203.292 285.28,194.644 291.73,185.324L332.716,185.324C335.968,185.324 339.079,184.005 341.339,181.669C390.925,130.432 401.84,51.06 402.28,47.706C402.731,44.28 401.683,40.827 399.405,38.229ZM154.093,289.114C154.093,279.188 162.168,271.114 172.093,271.114L230.291,271.114C240.216,271.114 248.291,279.188 248.291,289.114L248.291,290.443C248.291,300.368 240.216,308.443 230.291,308.443L172.093,308.443C162.168,308.443 154.093,300.368 154.093,290.443L154.093,289.114ZM250.769,195.178C248.653,196.928 247.201,199.352 246.655,202.042L237.516,247.113L164.866,247.113L155.728,202.042C155.182,199.352 153.73,196.928 151.614,195.178C102.043,154.195 93.403,66.412 91.911,34.575L310.472,34.575C308.981,66.415 300.341,154.195 250.769,195.178ZM74.878,161.324C44.696,127.803 31.405,80.961 26.432,58.143L69.52,58.143C72.367,86.084 79.397,125.919 96.676,161.324L74.878,161.324ZM276.163,367.809L126.221,367.809C133.707,341.97 158.069,333.938 163.532,332.443L238.843,332.443C244.421,333.974 268.693,342.029 276.163,367.809ZM327.507,161.324L305.706,161.324C322.987,125.92 330.016,86.085 332.864,58.143L375.969,58.143C371.027,80.935 357.78,127.714 327.507,161.324Z" style="fill:rgb(61,147,163);fill-rule:nonzero;"/>
        </g>
    </g>
</svg>
